<svg width="1081" height="73" viewBox="0 0 1081 73" fill="none" xmlns="http://www.w3.org/2000/svg">
<path d="M1.54046 14.9238C0.734949 15.7299 0.735414 17.0364 1.5415 17.8419L14.6774 30.9684C15.4835 31.7739 16.7899 31.7734 17.5954 30.9674C18.4009 30.1613 18.4005 28.8548 17.5944 28.0493L5.91804 16.3813L17.5861 4.70496C18.3916 3.89887 18.3911 2.59242 17.585 1.78691C16.779 0.981402 15.4725 0.981867 14.667 1.78795L1.54046 14.9238ZM1079.46 17.4585C1080.27 16.6524 1080.26 15.346 1079.46 14.5405L1066.32 1.41393C1065.52 0.608418 1064.21 0.608883 1063.4 1.41496C1062.6 2.22105 1062.6 3.5275 1063.41 4.33301L1075.08 16.001L1063.41 27.6774C1062.61 28.4835 1062.61 29.7899 1063.42 30.5954C1064.22 31.4009 1065.53 31.4005 1066.33 30.5944L1079.46 17.4585ZM3.00073 18.4457L1078 18.0634L1078 13.9366L2.99927 14.319L3.00073 18.4457Z" fill="black"/>
<path d="M409.984 41.28L410.152 43.68C410.608 42.048 411.64 41.28 413.32 41.28H415.864V43.056H413.32C411.376 43.056 410.464 44.232 410.464 46.416V52.224H414.616V54H405.136V52.224H408.448V43.056H405.136V41.28H409.984ZM418.975 47.64C418.975 43.608 421.279 40.992 424.807 40.992C427.615 40.992 430.111 42.84 430.327 47.352L430.351 48.264H421.135C421.303 50.856 422.623 52.368 424.807 52.368C426.175 52.368 427.399 51.576 427.975 50.232L430.135 50.4C429.391 52.8 427.255 54.288 424.807 54.288C421.279 54.288 418.975 51.672 418.975 47.64ZM421.159 46.488H428.143C427.783 43.824 426.367 42.912 424.807 42.912C422.791 42.912 421.495 44.232 421.159 46.488ZM433.773 52.224H438.693V40.224C438.693 39.192 438.261 38.736 437.277 38.736H434.253V36.96H437.277C439.485 36.96 440.709 38.112 440.709 40.224V52.224H445.173V54H433.773V52.224ZM447.948 45.024C448.428 42.624 450.516 40.992 453.156 40.992C456.228 40.992 458.268 42.768 458.268 46.32V51.432C458.268 51.96 458.508 52.224 459.06 52.224H459.564V54H458.94C457.404 54 456.492 53.184 456.276 52.032C455.772 53.208 454.332 54.288 452.316 54.288C449.796 54.288 447.732 52.944 447.732 50.664C447.732 48.048 449.724 47.376 452.532 46.848L456.252 46.104C456.228 43.944 455.028 42.912 453.156 42.912C451.572 42.912 450.42 43.872 450.108 45.192L447.948 45.024ZM449.844 50.664C449.844 51.672 450.708 52.512 452.58 52.512C454.668 52.488 456.3 51.048 456.3 48.528V47.904L453.3 48.432C451.404 48.768 449.844 48.888 449.844 50.664ZM465.723 37.92H467.739V41.28H472.827V43.056H467.739V50.496C467.739 51.576 468.315 52.224 469.395 52.224H472.803V54H469.395C466.803 54 465.723 52.608 465.723 50.496V43.056H462.075V41.28H465.723V37.92ZM484.001 41.28V52.224H488.345V54H476.945V52.224H481.985V43.056H477.425V41.28H484.001ZM481.721 39.384V36.96H484.001V39.384H481.721ZM502.448 41.28L497.816 54H495.272L490.64 41.28H492.8L496.544 51.888L500.288 41.28H502.448ZM505.318 47.64C505.318 43.608 507.622 40.992 511.15 40.992C513.958 40.992 516.454 42.84 516.67 47.352L516.694 48.264H507.478C507.646 50.856 508.966 52.368 511.15 52.368C512.518 52.368 513.742 51.576 514.318 50.232L516.478 50.4C515.734 52.8 513.598 54.288 511.15 54.288C507.622 54.288 505.318 51.672 505.318 47.64ZM507.502 46.488H514.486C514.126 43.824 512.71 42.912 511.15 42.912C509.134 42.912 507.838 44.232 507.502 46.488ZM534.1 47.64C534.1 43.608 536.404 40.992 539.932 40.992C542.74 40.992 545.236 42.84 545.452 47.352L545.476 48.264H536.26C536.428 50.856 537.748 52.368 539.932 52.368C541.3 52.368 542.524 51.576 543.1 50.232L545.26 50.4C544.516 52.8 542.38 54.288 539.932 54.288C536.404 54.288 534.1 51.672 534.1 47.64ZM536.284 46.488H543.268C542.908 43.824 541.492 42.912 539.932 42.912C537.916 42.912 536.62 44.232 536.284 46.488ZM557.274 41.28H559.77L555.378 47.496L559.986 54H557.514L554.106 49.056L550.674 54H548.202L552.858 47.472L548.442 41.28H550.914L554.106 45.936L557.274 41.28ZM563.217 57.6V41.28H565.041L565.113 43.176C565.809 41.76 567.153 40.992 569.025 40.992C572.841 40.992 574.521 44.136 574.521 47.64C574.521 51.144 572.841 54.288 569.025 54.288C567.249 54.288 565.929 53.568 565.233 52.224V57.6H563.217ZM565.017 47.64C565.017 50.016 566.097 52.368 568.689 52.368C571.305 52.368 572.361 50.064 572.361 47.64C572.361 45.216 571.305 42.912 568.689 42.912C566.097 42.912 565.017 45.264 565.017 47.64ZM577.271 47.64C577.271 43.608 579.576 40.992 583.104 40.992C585.912 40.992 588.408 42.84 588.624 47.352L588.648 48.264H579.432C579.6 50.856 580.92 52.368 583.104 52.368C584.472 52.368 585.696 51.576 586.272 50.232L588.432 50.4C587.688 52.8 585.552 54.288 583.104 54.288C579.576 54.288 577.271 51.672 577.271 47.64ZM579.456 46.488H586.44C586.08 43.824 584.664 42.912 583.104 42.912C581.088 42.912 579.792 44.232 579.456 46.488ZM597.062 41.28L597.23 43.68C597.686 42.048 598.718 41.28 600.398 41.28H602.942V43.056H600.398C598.454 43.056 597.542 44.232 597.542 46.416V52.224H601.694V54H592.214V52.224H595.526V43.056H592.214V41.28H597.062ZM613.517 41.28V52.224H617.861V54H606.461V52.224H611.501V43.056H606.941V41.28H613.517ZM611.237 39.384V36.96H613.517V39.384H611.237ZM620.443 47.64C620.443 43.608 622.747 40.992 626.275 40.992C629.083 40.992 631.579 42.84 631.795 47.352L631.819 48.264H622.603C622.771 50.856 624.091 52.368 626.275 52.368C627.643 52.368 628.867 51.576 629.443 50.232L631.603 50.4C630.859 52.8 628.723 54.288 626.275 54.288C622.747 54.288 620.443 51.672 620.443 47.64ZM622.627 46.488H629.611C629.251 43.824 627.835 42.912 626.275 42.912C624.259 42.912 622.963 44.232 622.627 46.488ZM635.554 41.28H637.378L637.45 43.464C638.098 41.76 639.586 40.992 641.338 40.992C644.242 40.992 645.634 43.128 645.634 45.816V54H643.618V46.392C643.618 44.04 642.85 42.768 640.93 42.768C638.89 42.768 637.57 44.04 637.57 46.392V54H635.554V41.28ZM658.345 45.552C658.057 43.896 656.689 42.912 655.153 42.912C652.801 42.912 651.457 44.688 651.457 47.64C651.457 50.592 652.801 52.368 655.153 52.368C656.761 52.368 658.129 51.312 658.441 49.488L660.577 49.632C660.145 52.512 657.841 54.288 655.153 54.288C651.625 54.288 649.345 51.672 649.345 47.64C649.345 43.608 651.625 40.992 655.153 40.992C657.745 40.992 660.097 42.672 660.457 45.408L658.345 45.552ZM663.615 47.64C663.615 43.608 665.919 40.992 669.447 40.992C672.255 40.992 674.751 42.84 674.967 47.352L674.991 48.264H665.775C665.943 50.856 667.263 52.368 669.447 52.368C670.815 52.368 672.039 51.576 672.615 50.232L674.775 50.4C674.031 52.8 671.895 54.288 669.447 54.288C665.919 54.288 663.615 51.672 663.615 47.64ZM665.799 46.488H672.783C672.423 43.824 671.007 42.912 669.447 42.912C667.431 42.912 666.135 44.232 665.799 46.488Z" fill="black"/>
</svg>
