<svg width="62" height="409" viewBox="0 0 62 409" fill="none" xmlns="http://www.w3.org/2000/svg">
<path d="M15.5334 317.313C13.1306 316.847 11.4865 314.769 11.471 312.129C11.4531 309.057 13.2171 307.006 16.7691 306.986L21.881 306.956C22.409 306.953 22.6715 306.711 22.6683 306.159L22.6654 305.655L24.4413 305.645L24.445 306.269C24.454 307.805 23.6433 308.721 22.4926 308.944C23.6715 309.441 24.7599 310.875 24.7717 312.891C24.7864 315.411 23.4545 317.483 21.1746 317.496C18.5586 317.511 17.875 315.523 17.3306 312.718L16.5648 309.003C14.405 309.039 13.38 310.245 13.391 312.117C13.4003 313.701 14.367 314.848 15.6888 315.152L15.5334 317.313ZM21.1622 315.384C22.1702 315.378 23.0051 314.509 22.9942 312.637C22.958 310.549 21.5085 308.926 18.9885 308.941L18.3645 308.944L18.9101 311.941C19.2571 313.835 19.3862 315.394 21.1622 315.384ZM7.38443 302.802L7.37265 300.786L13.3725 300.751C12.0964 300.038 11.3928 298.746 11.3817 296.85C11.3602 293.178 14.4944 291.48 17.9983 291.459C21.5023 291.439 24.656 293.101 24.6775 296.773C24.689 298.74 23.905 300.113 22.5891 300.817L24.4135 300.878L24.4241 302.702L7.38443 302.802ZM18.0536 300.915C20.4295 300.901 22.7753 299.832 22.76 297.216C22.7446 294.576 20.4346 293.557 18.0107 293.571C15.4907 293.586 13.1928 294.632 13.2082 297.272C13.2235 299.888 15.5816 300.93 18.0536 300.915ZM15.5072 279.987C14.0689 280.284 13.2129 281.657 13.2225 283.289C13.2302 284.609 13.9095 285.853 15.2293 285.821C16.5973 285.813 16.8997 284.179 17.2756 282.785C17.8616 280.381 18.6148 277.857 21.0388 277.843C23.5347 277.828 24.5812 280.294 24.5958 282.79C24.6129 285.718 22.9709 288.128 20.332 288.311L20.1758 286.224C21.7103 285.975 22.6862 284.577 22.6758 282.801C22.6678 281.433 22.2992 279.972 20.9313 279.98C19.5393 279.988 19.3338 281.789 19.0297 283.135C18.4913 285.466 17.6656 287.919 15.3377 287.932C12.7698 287.971 11.3164 285.676 11.3012 283.084C11.2858 280.444 12.8819 278.395 15.3514 277.972L15.5072 279.987ZM24.5132 268.664C24.5338 272.192 21.9312 274.487 17.8992 274.511C13.8673 274.534 11.238 272.269 11.2174 268.741C11.1968 265.214 13.7994 262.918 17.8313 262.895C21.8633 262.871 24.4926 265.136 24.5132 268.664ZM17.8869 272.399C20.8388 272.381 22.607 271.027 22.5932 268.675C22.5795 266.323 20.7956 264.989 17.8437 265.007C14.8917 265.024 13.1236 266.378 13.1374 268.73C13.1511 271.082 14.9349 272.416 17.8869 272.399ZM22.3955 259.493L22.3668 254.573L10.367 254.644C9.335 254.65 8.88153 255.084 8.88729 256.068L8.90496 259.092L7.12899 259.103L7.11132 256.079C7.09841 253.871 8.24323 252.64 10.3552 252.628L22.355 252.557L22.3289 248.094L24.1049 248.083L24.1715 259.483L22.3955 259.493ZM24.0283 234.989L24.0396 236.909L21.9276 236.921C23.5875 237.583 24.34 239.043 24.3499 240.723C24.3664 243.555 22.2386 244.959 19.5506 244.975L11.3668 245.023L11.3548 242.983L18.9387 242.939C21.3147 242.925 22.5822 242.149 22.5714 240.301C22.5599 238.333 21.2802 237.021 18.9042 237.035L11.3203 237.079L11.3085 235.063L24.0283 234.989ZM7.90503 227.628L7.89324 225.612L11.2532 225.593L11.2234 220.505L12.9994 220.494L13.0292 225.582L20.469 225.539C21.549 225.532 22.1936 224.953 22.1873 223.873L22.1674 220.465L23.9434 220.454L23.9633 223.862C23.9784 226.454 22.5928 227.542 20.4808 227.555L13.0409 227.598L13.0623 231.246L11.2863 231.257L11.265 227.609L7.90503 227.628ZM17.5616 216.757C13.5297 216.781 10.9003 214.492 10.8797 210.964C10.8633 208.156 12.6966 205.649 17.2073 205.407L18.1191 205.378L18.173 214.593C20.764 214.41 22.2682 213.081 22.2555 210.897C22.2475 209.529 21.4483 208.31 20.101 207.742L20.2564 205.581C22.6607 206.311 24.1611 208.438 24.1754 210.886C24.1961 214.414 21.5936 216.733 17.5616 216.757ZM16.3969 214.58L16.3561 207.596C13.6942 207.971 12.7905 209.393 12.7996 210.953C12.8114 212.969 14.139 214.257 16.3969 214.58ZM17.3934 187.976C13.3615 188 10.7321 185.711 10.7114 182.183C10.695 179.375 12.5284 176.868 17.0391 176.626L17.9509 176.597L18.0048 185.813C20.5957 185.629 22.1 184.301 22.0872 182.117C22.0792 180.749 21.2801 179.529 19.9328 178.961L20.0881 176.8C22.4924 177.53 23.9929 179.658 24.0072 182.105C24.0278 185.633 21.4253 187.953 17.3934 187.976ZM16.2287 185.799L16.1878 178.815C13.526 179.191 12.6223 180.612 12.6314 182.172C12.6432 184.188 13.9707 185.476 16.2287 185.799ZM10.9452 172.903L10.9345 171.079L13.1181 170.994C11.4103 170.356 10.6336 168.873 10.6234 167.121C10.6064 164.217 12.7342 162.812 15.4222 162.797L23.606 162.749L23.6178 164.765L16.01 164.809C13.658 164.823 12.3905 165.598 12.4017 167.518C12.4137 169.558 13.6934 170.871 16.0453 170.857L23.6532 170.813L23.665 172.829L10.9452 172.903ZM23.5327 150.206C25.6687 150.194 27.139 151.265 27.1515 153.401L27.1781 157.961L25.4022 157.972L25.3768 153.628C25.3717 152.764 24.6005 152.216 23.5445 152.222L12.6007 152.286L12.6342 158.022L10.8583 158.033L10.813 150.281L23.5327 150.206ZM8.93031 152.572L6.50635 152.586L6.49302 150.306L8.91698 150.292L8.93031 152.572ZM23.7561 139.15C23.7767 142.678 21.1741 144.974 17.1422 144.997C13.1102 145.021 10.481 142.756 10.4603 139.228C10.4397 135.7 13.0423 133.405 17.0743 133.381C21.1062 133.358 23.7355 135.622 23.7561 139.15ZM17.1298 142.885C20.0818 142.868 21.8499 141.514 21.8361 139.162C21.8224 136.81 20.0386 135.476 17.0866 135.493C14.1347 135.511 12.3666 136.865 12.3803 139.217C12.3941 141.569 14.1779 142.902 17.1298 142.885ZM10.6983 130.668L10.6857 128.508L21.2232 124.63L10.6418 120.996L10.6293 118.86L24.9871 123.912C26.3578 124.384 26.9872 125.293 26.9956 126.733L27.0046 128.269L25.2286 128.279L25.2209 126.959C25.2172 126.335 24.951 125.953 24.3256 125.716L23.1469 125.267L23.151 125.963L10.6983 130.668ZM10.6156 116.518L10.6048 114.67L12.3563 114.587C11.0336 114.115 10.3085 113.255 10.3011 111.983C10.2946 110.879 11.0107 110.203 12.6644 109.809C11.1978 109.362 10.2798 108.335 10.272 107.015C10.2607 105.071 11.8877 104.222 15.6317 104.2L23.2635 104.155L23.2753 106.171L15.6435 106.216C13.0515 106.231 12.0458 106.621 12.0515 107.605C12.058 108.709 13.3577 109.349 15.6617 109.336L23.2936 109.291L23.3053 111.307L15.6735 111.352C13.1055 111.367 12.0759 111.781 12.0824 112.885C12.0881 113.869 13.3876 114.461 15.6916 114.448L23.3234 114.403L23.3354 116.443L10.6156 116.518ZM16.8887 101.634C12.8568 101.658 10.2273 99.3689 10.2067 95.8409C10.1903 93.033 12.0237 90.5262 16.5343 90.2839L17.4462 90.2545L17.5001 99.4704C20.091 99.2872 21.5953 97.9584 21.5825 95.7744C21.5745 94.4065 20.7754 93.1871 19.428 92.619L19.5834 90.458C21.9877 91.188 23.4882 93.3153 23.5025 95.7632C23.5231 99.2912 20.9206 101.61 16.8887 101.634ZM15.7239 99.4567L15.6831 92.4729C13.0213 92.8484 12.1176 94.2697 12.1267 95.8297C12.1385 97.8457 13.466 99.1339 15.7239 99.4567ZM10.4405 86.5608L10.4298 84.7368L12.6134 84.6521C10.9056 84.014 10.1289 82.5305 10.1187 80.7786C10.1017 77.8746 12.2295 76.4702 14.9175 76.4544L23.1013 76.4066L23.1131 78.4226L15.5053 78.467C13.1533 78.4808 11.8858 79.2562 11.897 81.1762C11.909 83.2161 13.1886 84.5287 15.5406 84.5149L23.1485 84.4705L23.1603 86.4864L10.4405 86.5608ZM6.97972 69.3341L6.96794 67.3181L10.3279 67.2985L10.2981 62.2106L12.0741 62.2002L12.1038 67.2881L19.5437 67.2446C20.6237 67.2383 21.2683 66.6585 21.262 65.5785L21.2421 62.1706L23.0181 62.1602L23.038 65.5682C23.0531 68.1601 21.6675 69.2482 19.5555 69.2606L12.1156 69.3041L12.137 72.952L10.361 72.9624L10.3397 69.3145L6.97972 69.3341Z" fill="black"/>
<path d="M45.5858 408.414C46.3668 409.195 47.6332 409.195 48.4142 408.414L61.1421 395.686C61.9232 394.905 61.9232 393.639 61.1421 392.858C60.3611 392.077 59.0948 392.077 58.3137 392.858L47 404.172L35.6863 392.858C34.9052 392.077 33.6389 392.077 32.8579 392.858C32.0768 393.639 32.0768 394.905 32.8579 395.686L45.5858 408.414ZM48.4142 0.585794C47.6332 -0.195255 46.3669 -0.195255 45.5858 0.585794L32.8579 13.3137C32.0768 14.0948 32.0768 15.3611 32.8579 16.1421C33.6389 16.9232 34.9053 16.9232 35.6863 16.1421L47 4.82843L58.3137 16.1421C59.0948 16.9232 60.3611 16.9232 61.1422 16.1421C61.9232 15.3611 61.9232 14.0948 61.1422 13.3137L48.4142 0.585794ZM49 407L49 2.00001L45 2.00001L45 407L49 407Z" fill="black"/>
</svg>
